<?xml version="1.0"?>
<svg xmlns="http://www.w3.org/2000/svg" viewBox="0 0 64 64" width="512" height="512"><path d="m31.50909 11c-12.31084 0-20.71574 5.78023-26.50909 15 5.79335 9.21972 15.18 15 27.49091 15s20.71574-5.78028 26.50909-15c-5.79335-9.21977-15.18-15-27.49091-15z" fill="#b6dedc"/><circle cx="32" cy="26" fill="#fcd821" r="15"/><path d="m29 41h6v6h-6z" fill="#4bad32"/><path d="m26 47h12v14h-12z" fill="#344496"/><path d="m43 25h-2a8.00917 8.00917 0 0 0 -8-8v-2a10.01146 10.01146 0 0 1 10 10z"/><path d="m59.84668 25.46777a34.279 34.279 0 0 0 -5.6087-6.82605l5.66827-5.95227-1.44925-1.3789-5.722 6.00879a31.22936 31.22936 0 0 0 -7.72016-4.66651l2.91388-7.28125-1.85742-.74316-2.92267 7.30316a34.581 34.581 0 0 0 -10.14863-1.88867v-8.04291h-2v8.01434a32.83432 32.83432 0 0 0 -10.39636 1.74683l-2.66712-7.11224-1.873.70214 2.674 7.13074a28.99867 28.99867 0 0 0 -7.03644 4.27844l-6.21768-5.50879-1.32617 1.49708 6.02685 5.33978a36.82479 36.82479 0 0 0 -6.03076 7.37945 1.0018 1.0018 0 0 0 0 1.06446 32.05091 32.05091 0 0 0 23.84668 15.19983v4.26794h-2a.99974.99974 0 0 0 -1 1v14a.99974.99974 0 0 0 1 1h12a.99974.99974 0 0 0 1-1v-14a.99974.99974 0 0 0 -1-1h-2v-4.17755c10.043-.95508 18.05774-6.07733 23.84668-15.29022a1.0018 1.0018 0 0 0 0-1.06446zm-53.65919.53123c4.27424-6.58581 9.61738-10.798 16.17573-12.7409a15.951 15.951 0 0 0 -.636 24.99157 30.07145 30.07145 0 0 1 -15.53973-12.25067zm30.81251 22.001v12h-10v-12zm-7-2v-4.08728c.44714.02911.90045.0412 1.35345.0545.21613.00878.42829.03278.64655.03278h.49121c.50977 0 1.00855-.02277 1.50879-.04248v4.04248zm2.17566-6.00891c-.26618-.00232-.52875-.01428-.79279-.02234a13.98692 13.98692 0 0 1 .44147-27.95984c.26618.00232.52875.01428.79279.02234a13.98692 13.98692 0 0 1 -.44147 27.95984zm9.46112-1.24921a15.951 15.951 0 0 0 .636-24.99157 30.07132 30.07132 0 0 1 15.53971 12.25069c-4.27422 6.58579-9.61736 10.79807-16.17571 12.74088z"/></svg>
