<?xml version="1.0" encoding="UTF-8" standalone="no"?>
<svg
   xmlns:osb="http://www.openswatchbook.org/uri/2009/osb"
   xmlns:dc="http://purl.org/dc/elements/1.1/"
   xmlns:cc="http://creativecommons.org/ns#"
   xmlns:rdf="http://www.w3.org/1999/02/22-rdf-syntax-ns#"
   xmlns:svg="http://www.w3.org/2000/svg"
   xmlns="http://www.w3.org/2000/svg"
   xmlns:sodipodi="http://sodipodi.sourceforge.net/DTD/sodipodi-0.dtd"
   xmlns:inkscape="http://www.inkscape.org/namespaces/inkscape"
   width="5.9070415in"
   height="5.2844386in"
   viewBox="0 0 150.03886 134.22474"
   version="1.1"
   id="svg1289"
   sodipodi:docname="globe_virus.svg"
   inkscape:version="1.0 (4035a4f, 2020-05-01)">
  <defs
     id="defs1283">
    <linearGradient
       id="linearGradient2094"
       osb:paint="solid">
      <stop
         style="stop-color:#000000;stop-opacity:1;"
         offset="0"
         id="stop2092" />
    </linearGradient>
  </defs>
  <sodipodi:namedview
     fit-margin-bottom="0"
     fit-margin-right="0"
     fit-margin-left="0"
     fit-margin-top="0"
     units="in"
     id="base"
     pagecolor="#ffffff"
     bordercolor="#666666"
     borderopacity="1.0"
     inkscape:pageopacity="0.0"
     inkscape:pageshadow="2"
     inkscape:zoom="1.2555637"
     inkscape:cx="283.53799"
     inkscape:cy="253.65306"
     inkscape:document-units="mm"
     inkscape:current-layer="layer1"
     inkscape:document-rotation="0"
     showgrid="false"
     inkscape:window-width="1252"
     inkscape:window-height="855"
     inkscape:window-x="0"
     inkscape:window-y="23"
     inkscape:window-maximized="0"
     showguides="false"
     inkscape:guide-bbox="true" />
  <metadata
     id="metadata1286">
    <rdf:RDF>
      <cc:Work
         rdf:about="">
        <dc:format>image/svg+xml</dc:format>
        <dc:type
           rdf:resource="http://purl.org/dc/dcmitype/StillImage" />
        <dc:title></dc:title>
      </cc:Work>
    </rdf:RDF>
  </metadata>
  <g
     transform="translate(-39.423477,-80.351852)"
     inkscape:label="Layer 1"
     inkscape:groupmode="layer"
     id="layer1">
    <g
       id="g892">
      <g
         transform="matrix(0.26458333,0,0,0.26458333,38.100665,80.434069)"
         id="g1937">
        <path
           d="m 501,256 a 245.086,245.086 0 0 1 -9.21,66.77 l -7.03,0.71 c -0.57,0.05 -1.15,0.1 -1.71,0.12 l -5.94,0.27 a 41.177,41.177 0 0 0 -36.04,24.72 l -1.52,3.46 a 32.487,32.487 0 0 1 -29.74,19.43 h -25.27 a 11.7,11.7 0 0 1 -11.68,-10.57 l -1.01,-10.1 a 40.943,40.943 0 0 0 -18.66,-30.52 14.434,14.434 0 0 1 -6.63,-12.17 V 298 a 19.826,19.826 0 0 1 6.7,-14.85 l 43.16,-38.12 a 42.545,42.545 0 0 0 12.51,-44.11 43.345,43.345 0 0 0 -36.16,-30.43 l -4.36,-0.54 a 21.282,21.282 0 0 1 -13.43,-7.11 12.039,12.039 0 0 1 -1.47,-13.82 l 9.04,-15.46 a 311.66,311.66 0 0 1 39.3,-53.2 l 9.75,-13.6 A 244.464,244.464 0 0 1 501,256 Z"
           style="fill:#d8ff33"
           id="path1909" />
        <path
           d="m 484.76,323.48 7.03,-0.71 C 462.72,425.63 368.16,501 256,501 120.69,501 11,391.31 11,256 q 0,-11.565 1.05,-22.86 l 2.96,0.28 3.34,-0.66 a 38.754,38.754 0 0 1 40.97,18.6 39.311,39.311 0 0 0 7.04,8.84 l 17.42,16.4 a 26.148,26.148 0 0 0 11.02,6.17 l 2.03,0.56 a 35.421,35.421 0 0 1 24.73,24.62 l 9.33,33.69 a 33.123,33.123 0 0 0 5.56,11.18 l 28.29,37.09 a 35.82,35.82 0 0 1 6.84,15.8 l 7.69,46.14 a 6.786,6.786 0 0 0 2.38,4.23 6.544,6.544 0 0 0 6.64,0.93 13.008,13.008 0 0 0 7.94,-10.83 46.814,46.814 0 0 1 10.82,-25.6 l 8.2,-9.85 a 17.084,17.084 0 0 0 3.2,-5.93 l 8.43,-27.32 A 40.733,40.733 0 0 1 241,357.16 l 25.06,-19.24 a 8.947,8.947 0 0 0 3.46,-5.59 8.49,8.49 0 0 0 -1.93,-6.92 l -16.68,-19.63 c -1,-1.17 -1.95,-2.39 -2.84,-3.64 l -12.76,-17.77 c -7.05,-9.84 -18.33,-16.36 -30.44,-16.04 a 6.453,6.453 0 0 1 -3.46,-0.91 l -26.06,-15.64 a 25.363,25.363 0 0 0 -24.91,-0.61 l -13.73,7.36 a 26.993,26.993 0 0 1 -35.55,-9.35 L 87.82,228.12 a 29.025,29.025 0 0 1 0.49,-31.79 32.676,32.676 0 0 1 31.31,-14.15 l 20.01,2.54 a 17.989,17.989 0 0 0 17.88,-8.57 31.612,31.612 0 0 1 31.34,-15.47 l 8.75,1.12 a 17.8,17.8 0 0 0 16.29,-6.77 l 7.71,-10 a 26.039,26.039 0 0 0 0.78,-30.84 L 205.75,90.22 A 76.842,76.842 0 0 0 181.41,67.67 76.5,76.5 0 0 1 174.07,62.8 L 160.06,52.28 142.32,38.92 A 245.149,245.149 0 0 1 411.6,66.76 l -9.75,13.6 a 311.66,311.66 0 0 0 -39.3,53.2 l -9.04,15.46 a 12.039,12.039 0 0 0 1.47,13.82 21.282,21.282 0 0 0 13.43,7.11 l 4.36,0.54 a 43.345,43.345 0 0 1 36.16,30.43 42.545,42.545 0 0 1 -12.51,44.11 l -43.16,38.12 a 19.826,19.826 0 0 0 -6.7,14.85 v 10.12 a 14.434,14.434 0 0 0 6.63,12.17 40.943,40.943 0 0 1 18.66,30.52 l 1.01,10.1 a 11.7,11.7 0 0 0 11.68,10.57 h 25.27 a 32.487,32.487 0 0 0 29.74,-19.43 l 1.52,-3.46 a 41.177,41.177 0 0 1 36.04,-24.72 l 5.94,-0.27 c 0.56,-0.02 1.14,-0.07 1.71,-0.12 z"
           style="fill:#55d8d8"
           id="path1911" />
        <path
           d="m 267.59,325.41 a 8.49,8.49 0 0 1 1.93,6.92 8.947,8.947 0 0 1 -3.46,5.59 L 241,357.16 a 40.733,40.733 0 0 0 -14.12,20.32 l -8.43,27.32 a 17.084,17.084 0 0 1 -3.2,5.93 l -8.2,9.85 a 46.814,46.814 0 0 0 -10.82,25.6 13.008,13.008 0 0 1 -7.94,10.83 6.544,6.544 0 0 1 -6.64,-0.93 6.786,6.786 0 0 1 -2.38,-4.23 l -7.69,-46.14 a 35.82,35.82 0 0 0 -6.84,-15.8 l -28.29,-37.09 a 33.123,33.123 0 0 1 -5.56,-11.18 l -9.33,-33.69 A 35.421,35.421 0 0 0 96.83,283.33 L 94.8,282.77 A 26.148,26.148 0 0 1 83.78,276.6 L 66.36,260.2 a 39.311,39.311 0 0 1 -7.04,-8.84 38.754,38.754 0 0 0 -40.97,-18.6 l -3.34,0.66 -2.96,-0.28 A 245.088,245.088 0 0 1 142.32,38.92 l 17.74,13.36 14.01,10.52 a 76.5,76.5 0 0 0 7.34,4.87 76.842,76.842 0 0 1 24.34,22.55 l 16.63,23.97 a 26.039,26.039 0 0 1 -0.78,30.84 l -7.71,10 a 17.8,17.8 0 0 1 -16.29,6.77 l -8.75,-1.12 a 31.612,31.612 0 0 0 -31.34,15.47 17.989,17.989 0 0 1 -17.88,8.57 l -20.01,-2.54 a 32.676,32.676 0 0 0 -31.31,14.15 29.025,29.025 0 0 0 -0.49,31.79 l 13.34,21.06 a 26.993,26.993 0 0 0 35.55,9.35 l 13.73,-7.36 a 25.363,25.363 0 0 1 24.91,0.61 l 26.06,15.64 a 6.453,6.453 0 0 0 3.46,0.91 c 12.11,-0.32 23.39,6.2 30.44,16.04 l 12.76,17.77 c 0.89,1.25 1.84,2.47 2.84,3.64 z"
           style="fill:#d8ff33"
           id="path1913" />
        <path
           d="M 256,11 A 243.9,243.9 0 0 0 142.32,38.92 l 17.74,13.36 14.01,10.52 a 76.571,76.571 0 0 0 7.151,4.752 l 1.1,-0.632 a 245.341,245.341 0 0 1 228.664,0.7 l 0.616,-0.86 A 243.877,243.877 0 0 0 256,11 Z"
           style="fill:#6bf2ee"
           id="path1915" />
        <path
           d="m 51,284 q 0,-11.565 1.05,-22.86 l 2.306,-16.508 A 38.657,38.657 0 0 0 18.35,232.76 l -3.34,0.66 -2.96,-0.28 Q 11.015,244.435 11,256 A 244.91,244.91 0 0 0 136.321,469.81 244.436,244.436 0 0 1 51,284 Z"
           style="fill:#6bf2ee"
           id="path1917" />
        <path
           d="M 54.181,244.441 A 245.241,245.241 0 0 1 181.181,67.528 76.817,76.817 0 0 1 174.07,62.8 L 160.06,52.28 142.32,38.92 A 245.088,245.088 0 0 0 12.05,233.14 l 2.96,0.28 3.34,-0.66 a 38.657,38.657 0 0 1 35.831,11.681 z"
           style="fill:#f5ff92"
           id="path1919" />
        <path
           d="M 256,5 A 251,251 0 0 0 78.516,433.484 251.00028,251.00028 0 0 0 433.484,78.516 249.357,249.357 0 0 0 256,5 Z M 87,87 a 239.961,239.961 0 0 1 54.728,-41.02 l 28.741,21.613 a 83.25,83.25 0 0 0 7.908,5.258 71.343,71.343 0 0 1 22.447,20.785 l 16.622,23.97 a 20.061,20.061 0 0 1 -0.6,23.762 l -7.709,10 a 11.786,11.786 0 0 1 -10.781,4.478 l -8.748,-1.119 a 37.565,37.565 0 0 0 -37.287,18.408 11.932,11.932 0 0 1 -11.932,5.631 l -20.008,-2.541 a 38.619,38.619 0 0 0 -37.036,16.74 35,35 0 0 0 -0.591,38.363 l 13.34,21.064 a 33.113,33.113 0 0 0 43.445,11.427 l 13.733,-7.358 a 19.342,19.342 0 0 1 18.989,0.461 l 26.065,15.64 a 12.367,12.367 0 0 0 6.7,1.763 c 9.655,-0.269 19.149,4.808 25.412,13.539 l 12.751,17.775 c 0.991,1.38 2.05,2.734 3.147,4.026 l 16.683,19.626 a 2.522,2.522 0 0 1 0.576,2.089 2.972,2.972 0 0 1 -1.195,1.782 l -25.058,19.242 a 46.483,46.483 0 0 0 -16.2,23.3 l -8.422,27.326 a 11.12,11.12 0 0 1 -2.088,3.856 l -8.2,9.859 a 52.6,52.6 0 0 0 -12.186,28.887 7.01,7.01 0 0 1 -4.28,5.842 0.538,0.538 0 0 1 -0.585,-0.1 1.077,1.077 0 0 1 -0.2,-0.513 L 177.5,404.726 a 41.9,41.9 0 0 0 -7.984,-18.452 l -28.293,-37.1 a 26.791,26.791 0 0 1 -4.542,-9.144 l -9.338,-33.69 a 41.471,41.471 0 0 0 -28.924,-28.8 l -2.034,-0.556 a 20.172,20.172 0 0 1 -8.49,-4.754 L 70.474,255.835 a 33.457,33.457 0 0 1 -5.968,-7.5 A 44.844,44.844 0 0 0 18.782,226.588 237.2,237.2 0 0 1 87,87 Z M 425,425 A 239,239 0 0 1 17,256 q 0,-8.541 0.6,-16.98 l 1.908,-0.377 a 32.822,32.822 0 0 1 34.636,15.741 45.462,45.462 0 0 0 8.106,10.19 l 17.418,16.393 a 32.223,32.223 0 0 0 13.555,7.594 l 2.034,0.555 a 29.417,29.417 0 0 1 20.519,20.432 l 9.338,33.69 a 38.755,38.755 0 0 0 6.564,13.217 l 28.294,37.1 a 29.855,29.855 0 0 1 5.688,13.145 l 7.69,46.139 a 12.534,12.534 0 0 0 12.424,10.679 12.5,12.5 0 0 0 4.839,-0.974 18.984,18.984 0 0 0 11.587,-15.819 40.655,40.655 0 0 1 9.462,-22.3 l 8.2,-9.859 a 23.087,23.087 0 0 0 4.327,-7.993 l 8.423,-27.326 a 34.55,34.55 0 0 1 12.04,-17.32 l 25.058,-19.241 a 14.847,14.847 0 0 0 5.737,-9.406 14.572,14.572 0 0 0 -3.282,-11.754 L 255.48,301.9 c -0.886,-1.042 -1.74,-2.135 -2.539,-3.249 l -12.752,-17.775 c -8.584,-11.966 -21.846,-18.9 -35.475,-18.54 a 0.405,0.405 0 0 1 -0.214,-0.057 l -26.066,-15.64 a 31.4,31.4 0 0 0 -30.83,-0.748 l -13.732,7.357 a 21.068,21.068 0 0 1 -27.641,-7.27 l -13.34,-21.064 a 23,23 0 0 1 0.39,-25.212 26.675,26.675 0 0 1 25.585,-11.566 l 20.011,2.541 a 23.915,23.915 0 0 0 23.817,-11.5 25.589,25.589 0 0 1 25.4,-12.538 l 8.748,1.119 a 23.841,23.841 0 0 0 21.8,-9.056 l 7.709,-10 a 32.018,32.018 0 0 0 0.957,-37.925 L 210.685,86.8 A 83.437,83.437 0 0 0 184.438,62.5 71.148,71.148 0 0 1 177.675,58 L 153.616,39.905 a 239.578,239.578 0 0 1 249.816,27.953 l -6.244,8.712 a 316.469,316.469 0 0 0 -39.813,53.964 l -9.072,15.51 a 17.989,17.989 0 0 0 2.157,20.742 27.282,27.282 0 0 0 17.217,9.123 l 4.357,0.536 a 37.351,37.351 0 0 1 31.159,26.217 36.526,36.526 0 0 1 -10.75,37.872 L 349.5,278.658 A 25.621,25.621 0 0 0 341,298 v 10.119 a 20.2,20.2 0 0 0 9.159,17.211 34.892,34.892 0 0 1 15.832,26.075 l 0.955,9.859 A 17.421,17.421 0 0 0 384.539,377 h 25.266 a 38.272,38.272 0 0 0 35.24,-22.775 l 1.518,-3.338 a 35.142,35.142 0 0 1 30.819,-21.082 l 5.944,-0.239 0.184,-0.012 A 237.927,237.927 0 0 1 425,425 Z m 62.116,-107.79 -2.95,0.3 c -0.466,0.047 -0.934,0.08 -1.39,0.1 l -5.937,0.269 a 47.125,47.125 0 0 0 -41.263,28.305 l -1.518,3.219 A 26.271,26.271 0 0 1 409.805,365 h -25.266 a 5.515,5.515 0 0 1 -5.707,-4.927 l -1.01,-9.98 A 46.6,46.6 0 0 0 356.665,315.188 8.146,8.146 0 0 1 353,308.121 V 298 a 13.615,13.615 0 0 1 4.449,-10.351 L 400.5,249.527 a 48.527,48.527 0 0 0 14.234,-50.346 49.393,49.393 0 0 0 -41.2,-34.646 l -4.37,-0.536 a 15.31,15.31 0 0 1 -9.66,-5.115 6.042,6.042 0 0 1 -0.8,-6.836 l 9.038,-15.455 a 304.465,304.465 0 0 1 38.538,-52.174 5.927,5.927 0 0 0 0.459,-0.565 l 5.964,-8.322 Q 419.011,81.031 425,87 a 237.439,237.439 0 0 1 70,169 240.326,240.326 0 0 1 -7.885,61.209 z"
           style="fill:#284268"
           id="path1921" />
      </g>
      <g
         transform="matrix(0.54123481,0.35740262,-0.36011002,0.54533478,116.05781,12.824124)"
         id="g929">
        <path
           d="m 146.32754,82.571018 c -1.16135,0 -2.20134,-0.565689 -2.78181,-1.513268 -0.005,-0.0099 -0.0125,-0.01995 -0.0181,-0.03012 L 130.33437,58.347154 c -3.14927,-5.413901 -3.05897,-11.839888 0.2416,-17.189463 3.22896,-5.233632 8.96425,-8.431062 15.34196,-8.553257 0.27248,-0.0047 0.54639,-0.0047 0.81866,0 6.3778,0.12218 12.11311,3.319625 15.34218,8.553257 3.30055,5.349575 3.39087,11.775464 0.24161,17.189463 l -13.19326,22.680548 c -0.005,0.01 -0.0125,0.02012 -0.018,0.03011 -0.58036,0.947489 -1.62025,1.513262 -2.78162,1.513262 z"
           id="path2074"
           style="fill:none;fill-opacity:1;fill-rule:nonzero;stroke:#d73533;stroke-width:1.52717;stroke-miterlimit:4;stroke-dasharray:none;stroke-opacity:1;paint-order:stroke markers fill"
           sodipodi:nodetypes="cccsccccccccc" />
        <g
           id="g4114"
           transform="matrix(0.04841847,0,0,0.04734331,134.87358,39.590954)">
          <g
             id="XMLID_107_">
            <g
               id="g4090">
              <path
                 id="path4088"
                 fill="#eb5569"
                 d="m 484.426,222.033 c 1.77,22.9 -14.34,43.23 -35.97,45.4 -16.56,1.66 -31.54,-7.81 -38.46,-22.6 l -19.63,1.73 -14.82,7.15 c -3.39,1.63 -5.67,4.87 -6.19,8.59 -1.4,10.03 -3.94,19.69 -7.47,28.87 -1.2,3.11 -0.99,6.58 0.64,9.48 l 5.28,9.44 14.68,9.85 c 7.74,-2.96 16.75,-2.25 24.16,2.72 12.56,8.43 15.57,25.78 6.23,37.99 -8.04,10.52 -22.99,13.41 -34.37,6.65 -7.25,-4.3 -11.63,-11.44 -12.7,-19.07 l -16.27,-10.91 -10.24,-1.25 c -3.52,-0.43 -7.02,0.78 -9.58,3.23 -8.64,8.23 -18.4,15.3 -29.01,20.96 -3.57,1.9 -5.86,5.55 -6.11,9.58 l -1.3,20.74 6.44,25.55 c 10.96,3.06 20.02,11.75 23,23.57 4.5,17.87 -6.6,36 -24.7,40.03 -16.33,3.64 -33.08,-5.88 -38.27,-21.79 -4.04,-12.42 -0.33,-25.26 8.21,-33.65 l -6.47,-25.7 -9.99,-16.06 c -2.68,-4.31 -7.42,-6.86 -12.5,-6.85 -0.03,0 -0.05,0 -0.08,0 -8.75,0 -17.31,-0.87 -25.59,-2.5 -4.93,-0.98 -10.02,0.58 -13.48,4.23 l -13.2,13.93 -14.78,30.66 c 3.46,7.03 3.77,15.52 0.11,23.13 -6.58,13.64 -23.36,19.06 -36.77,11.52 -11.48,-6.47 -16.45,-20.75 -11.45,-32.95 3.41,-8.32 10.48,-13.88 18.48,-15.74 l 14.87,-30.86 2.92,-20.71 c 0.53,-3.82 -0.93,-7.67 -3.93,-10.09 -11.83,-9.6 -21.97,-21.19 -29.9,-34.27 -1.97,-3.25 -5.51,-5.22 -9.31,-5.25 l -20.68,-0.2 -22.64,7.12 c -1.59,14.08 -11.23,26.59 -25.61,31.11 -19.32,6.08 -39.9,-4.54 -46.17,-23.74 -6.27,-19.19 4.32,-40.18 23.49,-46.52 13.42,-4.44 27.52,-0.75 37.06,8.32 l 24.03,-7.56 17.55,-12.51 c 2.61,-1.85 4,-4.95 3.74,-8.13 -0.29,-3.53 -0.44,-7.09 -0.44,-10.69 0,-19.56 4.3,-38.13 11.98,-54.83 1.12,-2.45 1.09,-5.27 -0.09,-7.69 l -5.2,-10.63 -14.11,-10.65 c -7.9,2.53 -16.85,1.32 -23.97,-4.05 -12.08,-9.12 -14.12,-26.61 -4.12,-38.28 8.61,-10.05 23.7,-12.11 34.69,-4.73 7,4.7 10.98,12.06 11.62,19.74 l 15.64,11.8 15.76,2.81 c 11.47,-10.65 24.84,-19.28 39.53,-25.33 l 3.7,-22.48 -4.67,-23.22 c -13.82,-3.56 -25.04,-14.15 -28.06,-28.27 -4.26,-19.95 9.45,-39.38 30.63,-43.39 21.17,-4.01 41.79,8.9 46.05,28.85 3.19,14.93 -3.68,29.56 -16.22,37.66 l 4.41,21.9 10.83,17.28 c 0.71,1.13 1.95,1.81 3.28,1.81 h 0.02 c 24.8,0 48.02,6.9 67.85,18.88 1.09,0.65 2.43,0.74 3.58,0.2 l 16.96,-7.86 19.8,-21.42 c -1.19,-7.68 1,-15.82 6.69,-21.97 10.28,-11.11 27.88,-11.39 38.5,-0.28 9.31,9.75 9.67,25.3 0.83,35.48 -5.72,6.59 -13.93,9.63 -21.95,9.03 l -19.8,21.42 -6.43,17.3 c -0.45,1.2 -0.25,2.54 0.5,3.58 7.81,10.72 14.04,22.66 18.34,35.48 1.19,3.52 3.99,6.26 7.57,7.27 l 16.1,4.51 20.92,-1.85 c 5.13,-14.79 17.94,-25.98 33.67,-27.56 21.63,-2.17 40.6,14.64 42.36,37.54 z" />
            </g>
          </g>
          <g
             id="XMLID_8_">
            <g
               id="g4095">
              <circle
                 id="circle4093"
                 r="97.519997"
                 fill="#f58a97"
                 cy="243.983"
                 cx="238.936" />
            </g>
          </g>
          <path
             id="path4098"
             fill="#f07281"
             d="m 171.14,243.983 c 0,-48.807 35.852,-89.238 82.658,-96.395 -4.846,-0.741 -9.809,-1.125 -14.862,-1.125 -53.86,0 -97.52,43.66 -97.52,97.52 0,53.86 43.66,97.52 97.52,97.52 5.053,0 10.016,-0.384 14.862,-1.125 -46.805,-7.158 -82.658,-47.589 -82.658,-96.395 z" />
          <g
             id="g4112"
             fill="#eb5569">
            <circle
               id="circle4100"
               r="27.771"
               cy="38.921001"
               cx="74.852997" />
            <circle
               id="circle4102"
               r="18.343"
               cy="404.98599"
               cx="67.262001" />
            <circle
               id="circle4104"
               r="27.018"
               cy="435.11801"
               cx="404.05099" />
            <circle
               id="circle4106"
               r="25.188999"
               cy="217.089"
               cx="209.002" />
            <circle
               id="circle4108"
               r="17.145"
               cy="295.328"
               cx="229.222" />
            <circle
               id="circle4110"
               r="14.397"
               cy="243.983"
               cx="283.05801" />
          </g>
        </g>
      </g>
    </g>
  </g>
</svg>
